<svg id="Capa_1" data-name="Capa 1" xmlns="http://www.w3.org/2000/svg" viewBox="0 0 512 512"><defs><style>.cls-1{fill:#fff;}</style></defs><path class="cls-1" d="M441.56,351.91,458,335.5a15.31,15.31,0,0,0-21.65-21.65L429.19,321l-12.37-30.93,16.42-16.42A15.31,15.31,0,0,0,411.59,252l-7.15,7.14-18.62-46.55C544,51.05,512.83,19.87,502.48,9.52S461-32,299.43,126.18l-46.55-18.63,7.15-7.14a15.31,15.31,0,0,0-21.66-21.65L222,95.18,191,82.81l7.13-7.14A15.31,15.31,0,0,0,176.5,54L160.09,70.44l-52.49-21a15.28,15.28,0,0,0-16.51,3.39L47.78,96.13a15.31,15.31,0,0,0,3.39,24.21l165.47,91.93c-37.86,41.56-72.45,82.61-99,117.55H37a15.34,15.34,0,0,0-10.83,4.48L4.48,356a15.32,15.32,0,0,0,6,25.35l60.07,20c-7.46,15.43-11.37,31-1.09,41.25s25.81,6.36,41.24-1.09l20,60.06a15.32,15.32,0,0,0,25.36,6l21.65-21.65A15.34,15.34,0,0,0,182.18,475V394.4c34.94-26.59,76-61.17,117.56-99l91.92,165.46a15.31,15.31,0,0,0,24.21,3.39l43.31-43.31a15.29,15.29,0,0,0,3.38-16.51Zm-33,76.3L317.07,263.5a15.47,15.47,0,0,0-11-7.68,15.28,15.28,0,0,0-12.82,3.9C245.17,304.28,197,345,157.68,374.51a15.36,15.36,0,0,0-6.12,12.25V467.3l-13.47-40.4a15.28,15.28,0,0,0-3.7-6L125,411.5a15.31,15.31,0,0,0-18.36-2.5c-3,1.68-5.53,3-7.77,4.15,1.12-2.24,2.47-4.82,4.15-7.77A15.31,15.31,0,0,0,100.5,387l-9.41-9.41a15.28,15.28,0,0,0-6-3.7L44.7,360.44h80.54a15.36,15.36,0,0,0,12.25-6.12C167,315,207.72,266.83,252.29,218.72a15.31,15.31,0,0,0-3.79-23.79L83.79,103.42l21.82-21.81,191.75,76.7A15.27,15.27,0,0,0,313.82,155C447.58,22.51,480.63,31.23,480.59,30.84c.19.53,8.9,33.58-123.57,167.34a15.27,15.27,0,0,0-3.33,16.46l76.7,191.76Z" transform="translate(0 0)"/></svg>